<svg xmlns="http://www.w3.org/2000/svg">
  <symbol id="block1" viewBox="0 0 54 53">
    <path  d="M51.969,29C53.194,28.088,54,26.641,54,25c0-2.757-2.243-5-5-5h-6h-1h-4.688
      C38.237,16.077,39,8.605,39,6c0-4.959-2.719-6-5-6c-1.494,0-4,0.649-4,5c0,5.972-8.779,18.571-10.512,21h-1.811
      c-0.112-0.401-0.305-0.773-0.584-1.083C16.571,24.334,15.809,24,15,24H3c-1.654,0-3,1.345-3,3v23c0,1.654,1.346,3,3,3h9
      c1.597,0,3.039-1.291,3.215-2.877L17.672,28H20c0.319,0,0.619-0.151,0.807-0.409C21.264,26.967,32,12.244,32,5c0-2.131,0.58-3,2-3
      c1.559,0,3,0.484,3,4c0,3.072-1.032,11.934-1.948,14.683c-0.103,0.305-0.051,0.641,0.137,0.902C35.377,21.845,35.679,22,36,22h6h1
      h6c1.654,0,3,1.345,3,3c0,1.654-1.346,3-3,3h-2c-0.553,0-1,0.447-1,1s0.447,1,1,1h2c1.654,0,3,1.346,3,3s-1.346,3-3,3h-1
      c-0.118,0-0.229,0.029-0.334,0.067C47.446,36.038,47.228,36,47,36h-1c-0.553,0-1,0.447-1,1s0.447,1,1,1h1c1.654,0,3,1.346,3,3
      s-1.346,3-3,3h-1c-0.109,0-0.209,0.029-0.308,0.062C45.594,44.029,45.493,44,45.384,44H44.5c-0.553,0-1,0.447-1,1s0.447,1,1,1
      c1.379,0,2.5,1.121,2.5,2.5S45.654,51,44,51h-8h-3h-3.5c-3.691,0-7.208-0.472-8.052-0.895l-2-1
      c-0.494-0.246-1.094-0.047-1.342,0.447c-0.247,0.494-0.047,1.095,0.447,1.342l2,1C21.99,52.612,26.234,53,29.5,53H33h3h8
      c2.757,0,5-2.019,5-4.5c0-0.988-0.323-1.898-0.865-2.642C50.345,45.34,52,43.365,52,41c0-1.279-0.497-2.436-1.29-3.32
      C52.623,36.978,54,35.153,54,33C54,31.358,53.194,29.912,51.969,29 M13.227,49.902C13.163,50.487,12.588,51,12,51H3
      c-0.551,0-1-0.448-1-1V27c0-0.552,0.449-1,1-1h12c0.244,0,0.458,0.089,0.603,0.251c0.145,0.162,0.21,0.383,0.183,0.626
      L13.227,49.902z"/>
  </symbol>
  <symbol id="block2" viewBox="0 0 53.456 50.143">
    <path d="M3.259,22.421l15.048,4.543c0.097,0.029,0.194,0.043,0.29,0.043
      c0.429,0,0.826-0.279,0.957-0.711c0.16-0.529-0.14-1.087-0.669-1.247L4.26,20.634l1.094-1.433c0.157-0.207,0.614-0.452,0.875-0.47
      l20.095-1.352c0.551-0.038,0.968-0.514,0.932-1.065c-0.037-0.551-0.51-0.97-1.065-0.931L6.096,16.735
      c-0.841,0.056-1.823,0.583-2.333,1.254l-1.361,1.784c-0.36,0.473-0.471,1.042-0.303,1.561C2.268,21.852,2.69,22.249,3.259,22.421"
      />
    <path d="M53.169,40.307L42.54,20.894L50.712,9.85c2.591-3.395,3.242-7.221,1.531-8.882
      c-0.082-0.084-0.364-0.357-0.694-0.532C51.077,0.143,50.409,0,49.51,0c-3.039,0-8.943,1.716-10.919,4.307L20.445,28.439
      c-0.529,0.695-3.884,5.26-6.47,9.365L4,39.146c-0.812,0.109-1.762,0.662-2.258,1.313l-1.361,1.782
      c-0.356,0.468-0.47,1.034-0.312,1.555c0.158,0.52,0.567,0.928,1.123,1.117l7.546,2.584c-0.151,0.438-0.185,0.913,0.103,1.337
      c0.574,0.843,1.656,1.308,3.046,1.308c0.388,0,0.652-0.037,0.652-0.037c6.272-0.844,14.421-8.774,15.606-10.329l3.269-4.286
      c0.53-0.608,1.191-0.917,1.965-0.917c0.247,0,0.449,0.032,0.569,0.06l14.855,10.636c0.854,0.611,2.161,0.415,2.798-0.42
      l1.359-1.783C53.53,42.318,53.621,41.134,53.169,40.307 M51.371,41.853l-1.403,1.79L34.964,32.899l-0.275-0.139
      c-0.325-0.106-2.77-0.895-4.823,1.466l-3.31,4.338c-0.962,1.262-8.634,8.799-14.279,9.558c-0.024,0.003-0.175,0.021-0.389,0.021
      c-0.476,0-0.88-0.082-1.142-0.223c0.059-0.104,0.143-0.239,0.264-0.413l0.752-1.087l-9.555-3.272l1.126-1.476
      c0.172-0.227,0.653-0.506,0.935-0.543l10.906-1.468l0.249-0.399c2.573-4.139,6.075-8.904,6.617-9.614L40.185,5.515
      C41.54,3.737,46.67,2,49.51,2c0.761,0,0.982,0.134,0.984,0.135l0.118,0.068c0.042,0.023,0.145,0.107,0.221,0.183
      c0.716,0.696,0.405,3.477-1.72,6.263l-8.941,12.084l11.243,20.533C51.488,41.401,51.465,41.73,51.371,41.853"/>
    <path d="M43.545,8.804c0.219,0.139,0.472,0.21,0.735,0.21
      c0.111,0,0.225-0.012,0.339-0.038c1.283-0.293,2.902-2.639,3.752-4.011c0.291-0.469,0.146-1.086-0.323-1.377
      c-0.47-0.291-1.086-0.146-1.377,0.323c-0.853,1.376-1.928,2.728-2.421,3.063c-0.385-0.065-0.789,0.1-1.012,0.45
      C42.941,7.889,43.079,8.508,43.545,8.804"/>
  </symbol>
  <symbol id="block3" viewBox="0 0 54 54">
    <path d="M49.111,32c-0.039,0-0.073,0.018-0.111,0.022V25
      c0-0.009-0.005-0.016-0.005-0.025C49.618,24.141,50,23.118,50,22V12c0-2.757-2.243-5-5-5H34.931C34.436,3.06,31.072,0,27,0
      c-4.072,0-7.436,3.06-7.931,7H9c-2.757,0-5,2.243-5,5v10c0,1.118,0.382,2.141,1.005,2.975C5.005,24.984,5,24.991,5,25v7.017
      C2.274,32.107,0,34.345,0,37v11c0,2.757,2.243,5,5,5h2c0.009,0,0.016-0.005,0.024-0.005C7.858,53.618,8.882,54,10,54h34
      c1.118,0,2.142-0.382,2.976-1.005C46.983,52.995,46.991,53,47,53h2c2.757,0,5-2.243,5-5V37C54,34.196,51.853,32,49.111,32 M48,12
      v10c0,1.654-1.346,3-3,3h-5V9h5C46.654,9,48,10.346,48,12 M40.997,36H37v-3h4L40.997,36z M16.997,36H13v-3h4L16.997,36z M16,9h22
      v16H16V9z M27,2c2.967,0,5.432,2.167,5.91,5H21.09C21.568,4.167,24.033,2,27,2 M6,12c0-1.654,1.346-3,3-3h5v16H9
      c-1.654,0-3-1.346-3-3V12z M2,48V37c0-1.544,1.384-2.893,3-2.983V49c0,0.712,0.154,1.386,0.424,2H5C3.346,51,2,49.654,2,48 M10,52
      c-1.654,0-3-1.346-3-3V26.576C7.613,26.846,8.288,27,9,27h5v4h-1c-1.103,0-2,0.897-2,2v3c0,1.103,0.897,2,2,2h1v2
      c0,0.552,0.447,1,1,1s1-0.448,1-1v-2h1c1.103,0,2-0.897,2-2v-3c0-1.103-0.897-2-2-2h-1v-4h22v4h-1c-1.103,0-2,0.897-2,2v3
      c0,1.103,0.897,2,2,2h1v2c0,0.552,0.447,1,1,1s1-0.448,1-1v-2h1c1.103,0,2-0.897,2-2v-3c0-1.103-0.897-2-2-2h-1v-4h5
      c0.712,0,1.387-0.154,2-0.424V49c0,1.654-1.346,3-3,3H10z M52,48c0,1.654-1.346,3-3,3h-0.424C48.846,50.386,49,49.712,49,49V33.978
      C49.038,33.982,49.072,34,49.111,34C50.731,34,52,35.318,52,37V48z"/>
    <path d="M32,44H22c-2.804,0-5,1.538-5,3.5V50c0,0.552,0.447,1,1,1s1-0.448,1-1v-2.5
      c0-0.694,1.311-1.5,3-1.5h10c1.689,0,3,0.806,3,1.5V50c0,0.552,0.447,1,1,1s1-0.448,1-1v-2.5C37,45.538,34.804,44,32,44"/>
  </symbol>
  <symbol id="block4" viewBox="0 0 54 54">
    <path d="M49,0H8C5.243,0,3,2.243,3,5v4c-1.654,0-3,1.346-3,3v6c0,1.654,1.346,3,3,3v8
      c-1.654,0-3,1.346-3,3v6c0,1.654,1.346,3,3,3v4c0,2.757,2.243,5,5,5h41c2.757,0,5-2.243,5-5V5C54,2.243,51.757,0,49,0 M2,18v-6
      c0-0.552,0.448-1,1-1h2c0.552,0,1,0.448,1,1v6c0,0.552-0.448,1-1,1H3C2.448,19,2,18.552,2,18 M2,38v-6c0-0.552,0.448-1,1-1h2
      c0.552,0,1,0.448,1,1v6c0,0.552-0.448,1-1,1H3C2.448,39,2,38.552,2,38 M52,45c0,1.654-1.346,3-3,3H8c-1.654,0-3-1.346-3-3v-4
      c1.654,0,3-1.346,3-3v-6c0-1.654-1.346-3-3-3v-8c1.654,0,3-1.346,3-3v-6c0-1.654-1.346-3-3-3V5c0-1.654,1.346-3,3-3h41
      c1.654,0,3,1.346,3,3V45z"/>
    <path d="M29,11c-8.271,0-15,6.729-15,15c0,8.271,6.729,15,15,15c8.271,0,15-6.729,15-15
      C44,17.729,37.271,11,29,11 M29,39c-7.168,0-13-5.832-13-13s5.832-13,13-13s13,5.832,13,13S36.168,39,29,39"/>
    <path d="M30,21.102V16c0-0.553-0.447-1-1-1s-1,0.447-1,1v5.102
      c-2.279,0.463-4,2.484-4,4.898c0,2.757,2.243,5,5,5s5-2.243,5-5C34,23.586,32.279,21.565,30,21.102 M29,29c-1.654,0-3-1.346-3-3
      c0-1.654,1.346-3,3-3s3,1.346,3,3C32,27.654,30.654,29,29,29"/>
    <path d="M17,52h-6c-0.553,0-1,0.447-1,1s0.447,1,1,1h6c0.553,0,1-0.447,1-1
      S17.553,52,17,52"/>
    <path d="M46,52h-6c-0.553,0-1,0.447-1,1s0.447,1,1,1h6c0.553,0,1-0.447,1-1
      S46.553,52,46,52"/>
    <path d="M29,33c-0.553,0-1,0.447-1,1v2c0,0.553,0.447,1,1,1s1-0.447,1-1v-2
      C30,33.447,29.553,33,29,33"/>
    <path d="M36,26c0,0.553,0.447,1,1,1h2c0.553,0,1-0.447,1-1s-0.447-1-1-1h-2
      C36.447,25,36,25.447,36,26"/>
    <path d="M22,26c0-0.553-0.447-1-1-1h-2c-0.553,0-1,0.447-1,1s0.447,1,1,1h2
      C21.553,27,22,26.553,22,26"/>
    <path d="M34.656,21.342c0.256,0,0.512-0.098,0.707-0.293l1.415-1.414
      c0.391-0.39,0.391-1.023,0-1.414s-1.023-0.391-1.414,0l-1.415,1.414c-0.391,0.39-0.391,1.023,0,1.414
      C34.145,21.244,34.4,21.342,34.656,21.342"/>
    <path d="M22.636,30.949l-1.414,1.414c-0.391,0.391-0.391,1.023,0,1.414
      c0.195,0.195,0.451,0.293,0.707,0.293s0.512-0.098,0.707-0.293l1.414-1.414c0.391-0.391,0.391-1.023,0-1.414
      S23.027,30.559,22.636,30.949"/>
    <path d="M35.363,30.95c-0.391-0.391-1.023-0.391-1.414,0
      c-0.391,0.39-0.391,1.023,0,1.414l1.414,1.415c0.195,0.195,0.451,0.293,0.707,0.293s0.512-0.098,0.707-0.293
      c0.391-0.39,0.391-1.023,0-1.414L35.363,30.95z"/>
    <path d="M22.636,21.051c0.195,0.195,0.451,0.293,0.707,0.293s0.512-0.098,0.707-0.293
      c0.391-0.391,0.391-1.023,0-1.414l-1.414-1.414c-0.391-0.391-1.023-0.391-1.414,0c-0.391,0.39-0.391,1.023,0,1.414L22.636,21.051z"
      />
  </symbol>
  <symbol id="block5" viewBox="0 0 54 54">
    <path d="M46.581,53.186c0.93,0,1.777-0.113,2.401-0.716
      c0.46-0.443,0.692-1.071,0.692-1.865c0-1.049-0.229-1.633-1.116-4.552c-0.906-2.982-8.978-7.164-14.978-9.56v-2.349
      c0-0.328-0.028-0.635-0.297-0.822c-0.271-0.188-0.548-0.229-0.854-0.114l-0.944,0.367c-0.149-0.879-0.252-1.833-0.295-2.539
      c0.623-0.569,1.217-1.318,1.822-2.314c0.198-0.323,0.398-0.632,0.594-0.936c0.626-0.98,1.272-1.989,1.826-3.352
      c0.551-0.248,1.051-0.707,1.36-1.276c1.165-2.136,1.838-5.564,1.359-6.919c-0.192-0.546-0.584-0.945-1.122-1.165
      C37.06,8.36,34.431,3.32,29.903,1.49c-5.654-3.119-9.506-0.488-10.417,0.256c-6.69,2.014-6.872,8.732-6.731,13.279
      c-0.599,0.205-1.033,0.62-1.239,1.208c-0.481,1.354,0.191,4.779,1.356,6.915c0.332,0.609,0.88,1.084,1.476,1.315
      c0.54,1.347,1.155,2.314,1.802,3.331c0.183,0.287,0.369,0.579,0.556,0.885c0.64,1.051,1.288,1.84,2.009,2.441
      c-0.095,0.637-0.307,1.597-0.511,2.466l-1.006-0.377c-0.306-0.115-0.784-0.073-1.054,0.114c-0.269,0.188-0.563,0.494-0.563,0.822v3
      l-0.229-0.932c-3.426,1.334-13.365,6.013-14.366,9.88c-0.715,2.763-0.966,4.117-0.978,4.173c-0.014,0.067-0.005,0.137-0.005,0.205
      c0,0.803,0.246,1.442,0.714,1.902c0.843,0.827,2.11,0.805,3.446,0.78L46.581,53.186z M17.581,35.926
      c0,0.285,0.481,0.52,0.804,0.599c0.08,0.021,0.227,0.029,0.306,0.029c0.289,0,0.585-0.136,0.773-0.348l5.017,1.875
      c0.226,0.084,0.483,0.084,0.71,0l5.041-1.889c0.243,0.217,0.446,0.324,0.79,0.235c0.359-0.099,0.56-0.386,0.56-0.723v6.158
      l-6.624-1.688c-0.08-0.021-0.094-0.03-0.176-0.03s-0.264,0.01-0.343,0.03l-6.857,1.688V35.926z M20.242,3.608
      c0.153-0.043,0.299-0.126,0.415-0.234c0.131-0.121,3.257-2.932,8.329-0.106c0.038,0.022,0.077,0.041,0.117,0.057
      c3.561,1.41,5.7,5.384,5.903,10.784c-6.754-0.374-12.567-5.088-13.178-6.156c-0.077-0.394-0.386-0.711-0.793-0.79
      c-0.473-0.088-0.94,0.165-1.117,0.611c-0.016,0.041-1.548,3.746-5.166,5.071C14.865,8.601,15.86,4.835,20.242,3.608 M20.335,29.841
      c-0.682-0.472-1.292-1.172-1.922-2.206c-0.194-0.316-0.386-0.62-0.575-0.916c-0.694-1.089-1.292-2.03-1.801-3.445
      c-0.133-0.368-0.514-0.628-0.905-0.66c-0.097-0.008-0.363-0.165-0.504-0.425c-1.01-1.851-1.442-4.682-1.253-5.261
      c0.025-0.015,0.142-0.057,0.379-0.049c0.273-0.011,0.545-0.098,0.74-0.295c0.195-0.197,0.301-0.465,0.29-0.742
      c-0.011-0.305-0.02-0.609-0.027-0.913c3.257-0.919,5.246-3.316,6.233-4.914c2.402,2.453,8.231,5.815,14.066,6.101
      c0.041,0.167,0.109,0.325,0.229,0.452c0.184,0.195,0.438,0.309,0.707,0.314c0.184,0.003,0.279,0.034,0.272,0.023
      c0.216,0.609-0.218,3.443-1.228,5.296c-0.142,0.26-0.402,0.423-0.501,0.436c-0.365,0.051-0.672,0.298-0.799,0.644
      c-0.518,1.399-1.147,2.385-1.813,3.428c-0.202,0.315-0.406,0.635-0.611,0.972c-0.605,0.994-1.156,1.666-1.736,2.114
      c-0.246,0.191-0.389,0.486-0.387,0.799c0.006,0.886,0.189,2.404,0.425,3.693l-4.769,1.788l-4.755-1.783
      c0.351-1.473,0.653-2.885,0.673-3.603C20.774,30.353,20.613,30.034,20.335,29.841 M47.593,51.032
      c-0.199,0.192-1.154,0.179-1.789,0.156c-0.311-0.012-0.632-0.002-0.957-0.002H25.581v-6.041c0-0.553-0.447-1-1-1
      c-0.552,0-1,0.447-1,1v6.041H4.847c-0.241,0-0.482-0.017-0.717-0.012c-0.742,0.013-1.759,0.022-2.004-0.219
      c-0.058-0.056-0.095-0.197-0.104-0.384c0.081-0.372,0.244-1.697,0.834-3.974c0.587-2.27,7.725-6.331,12.725-8.375v4.922
      c0,0.308,0.275,0.599,0.518,0.788c0.242,0.189,0.626,0.257,0.925,0.182l7.791-1.938l7.773,1.938c0.08,0.021,0.17,0.03,0.251,0.03
      c0.221,0,0.31-0.073,0.486-0.212c0.243-0.189,0.256-0.48,0.256-0.788v-4.462c8,3.267,12.615,6.472,13.063,7.951
      c0.854,2.81,0.966,3.214,0.966,3.971C47.609,50.879,47.623,51.002,47.593,51.032"/>
    <path d="M36.581,47.186h-4c-0.552,0-1,0.447-1,1s0.448,1,1,1h4c0.552,0,1-0.447,1-1
      S37.133,47.186,36.581,47.186"/>
  </symbol>
  <symbol id="ucan1" viewBox="0 0 54 42">
    <path d="M49,0H5C2.243,0,0,2.243,0,5v32c0,2.757,2.243,5,5,5h44c2.757,0,5-2.243,5-5V5
    C54,2.243,51.757,0,49,0 M52,37c0,1.654-1.346,3-3,3H5c-1.654,0-3-1.346-3-3V5c0-1.654,1.346-3,3-3h44c1.654,0,3,1.346,3,3V37z"/>
    <path d="M45,7H33c-0.552,0-1,0.447-1,1v13c0,0.553,0.448,1,1,1h12c0.552,0,1-0.447,1-1
      V8C46,7.447,45.552,7,45,7 M44,20H34V9h10V20z"/>
    <path d="M25,19H9c-0.552,0-1,0.447-1,1s0.448,1,1,1h16c0.552,0,1-0.447,1-1
      S25.552,19,25,19"/>
    <path d="M25,26H9c-0.552,0-1,0.447-1,1s0.448,1,1,1h16c0.552,0,1-0.447,1-1
      S25.552,26,25,26"/>
    <path d="M16,33H9c-0.552,0-1,0.447-1,1s0.448,1,1,1h7c0.552,0,1-0.447,1-1
      S16.552,33,16,33"/>
  </symbol>
  <symbol id="ucan2" viewBox="0 0 43.035 52.794">
    <path d="M18.935,37.87c10.44,0,18.935-8.494,18.935-18.935
      C37.87,8.494,29.375,0,18.935,0C8.494,0,0,8.494,0,18.935C0,29.375,8.494,37.87,18.935,37.87 M18.935,2
      C28.273,2,35.87,9.597,35.87,18.935c0,9.337-7.597,16.935-16.935,16.935C9.597,35.87,2,28.272,2,18.935C2,9.597,9.597,2,18.935,2"
      />
    <path d="M43.035,18.935c0-5.154-1.604-10.019-4.615-14.15l0.27-0.235
      c0.417-0.362,0.462-0.993,0.101-1.41s-0.993-0.462-1.41-0.101L35.13,4.99c-0.417,0.362-0.462,0.993-0.101,1.411
      c0.197,0.228,0.477,0.345,0.756,0.345c0.231,0,0.466-0.081,0.654-0.245l0.464-0.402c2.695,3.757,4.132,8.167,4.132,12.836
      c0,12.186-9.914,22.1-22.101,22.1c-5.749,0-11.118-2.187-15.245-6.137l0.61-0.505c0.426-0.352,0.485-0.981,0.134-1.407
      c-0.352-0.427-0.983-0.486-1.408-0.135l-2.628,2.173c-0.426,0.352-0.486,0.981-0.134,1.407c0.198,0.239,0.483,0.363,0.771,0.363
      c0.225,0,0.451-0.075,0.637-0.229l0.451-0.373c4.308,4.205,9.902,6.602,15.912,6.819v3.782c0,0.552,0.448,1,1,1
      c2.965,0,4.979,1.698,6.087,3H12.86c0.621-0.784,1.569-1.721,2.879-2.34c0.5-0.236,0.713-0.832,0.478-1.331
      c-0.236-0.5-0.833-0.712-1.331-0.478c-3.264,1.541-4.7,4.602-4.76,4.73c-0.142,0.311-0.117,0.671,0.067,0.957
      c0.184,0.288,0.501,0.461,0.842,0.461h16c0.349,0,0.673-0.182,0.854-0.48c0.182-0.299,0.194-0.671,0.033-0.98
      c-0.11-0.213-2.628-4.941-7.887-5.488v-2.839C32.814,42.429,43.035,31.855,43.035,18.935"/>
  </symbol>
  <symbol id="whyus1" viewBox="0 0 46 54">
    <path d="M23,29c-2.757,0-5,2.243-5,5c0,1.563,0.754,3.04,2,3.979V43
      c0,1.654,1.346,3,3,3c1.654,0,3-1.346,3-3v-5.021c1.246-0.939,2-2.416,2-3.979C28,31.243,25.757,29,23,29 M24.497,36.581L24,36.87
      V43c0,0.551-0.448,1-1,1s-1-0.449-1-1v-6.13l-0.497-0.289C20.561,36.033,20,35.068,20,34c0-1.654,1.346-3,3-3c1.654,0,3,1.346,3,3
      C26,35.068,25.438,36.033,24.497,36.581"/>
    <path d="M41,21h-2v-5.5C39,6.953,31.822,0,23,0C14.178,0,7,6.953,7,15.5V21H5
      c-2.757,0-5,2.243-5,5v23c0,2.757,2.243,5,5,5h36c2.757,0,5-2.243,5-5V26C46,23.243,43.757,21,41,21 M9,15.5C9,8.056,15.28,2,23,2
      c7.72,0,14,6.056,14,13.5V21H9V15.5z M44,49c0,1.654-1.346,3-3,3H5c-1.654,0-3-1.346-3-3V26c0-1.654,1.346-3,3-3h36
      c1.654,0,3,1.346,3,3V49z"/>
  </symbol>
  <symbol id="whyus2" viewBox="0 0 46 54">
    <path d="M41,0H5C2.243,0,0,2.243,0,5v44c0,2.757,2.243,5,5,5h36c2.757,0,5-2.243,5-5V5
      C46,2.243,43.757,0,41,0 M44,49c0,1.654-1.346,3-3,3H5c-1.654,0-3-1.346-3-3V5c0-1.654,1.346-3,3-3h36c1.654,0,3,1.346,3,3V49z"/>
    <path d="M23.063,7.865c-6.691,0-12.136,5.444-12.136,12.136
      c0,6.69,5.445,12.133,12.136,12.133c6.689,0,12.132-5.443,12.132-12.133C35.195,13.31,29.753,7.865,23.063,7.865 M32.529,23.584
      c-1.454-0.584-2.889-1.002-4.284-1.276c0.064-0.766,0.099-1.539,0.099-2.307c0-0.797-0.038-1.6-0.106-2.393
      c1.405-0.289,2.829-0.721,4.241-1.33c0.457,1.154,0.717,2.408,0.717,3.723C33.195,21.263,32.953,22.467,32.529,23.584
       M23.063,29.99c-1.009,0-2.36-2.209-2.966-5.904c1.755-0.234,3.775-0.319,5.941-0.083C25.439,27.747,24.078,29.99,23.063,29.99
       M19.859,22.072c-0.051-0.658-0.08-1.348-0.08-2.071c0-0.718,0.029-1.402,0.079-2.056c1.005,0.109,2.08,0.179,3.212,0.179
      c1.027,0,2.1-0.063,3.194-0.195c0.05,0.659,0.079,1.348,0.079,2.072c0,0.696-0.028,1.361-0.075,1.998
      C23.926,21.735,21.751,21.822,19.859,22.072 M23.063,10.008c1.009,0,2.359,2.214,2.964,5.915c-2.119,0.25-4.148,0.2-5.933,0.008
      C20.699,12.226,22.053,10.008,23.063,10.008 M31.555,14.489c-1.183,0.497-2.378,0.859-3.567,1.109
      c-0.332-1.998-0.894-3.824-1.671-5.187C28.486,11.15,30.325,12.601,31.555,14.489 M19.808,10.413
      c-0.785,1.376-1.351,3.224-1.682,5.245c-1.678-0.291-2.982-0.652-3.728-0.885C15.624,12.749,17.532,11.188,19.808,10.413
       M13.527,16.6c0.781,0.26,2.33,0.721,4.352,1.069c-0.065,0.774-0.1,1.556-0.1,2.333c0,0.799,0.038,1.604,0.107,2.4
      c-1.972,0.405-3.466,0.926-4.269,1.244c-0.44-1.133-0.69-2.359-0.69-3.644C12.927,18.807,13.146,17.665,13.527,16.6 M14.528,25.443
      c0.728-0.273,1.978-0.686,3.61-1.027c0.332,1.992,0.894,3.812,1.669,5.172C17.612,28.841,15.757,27.363,14.528,25.443
       M26.316,29.589c0.789-1.384,1.357-3.244,1.687-5.277c1.189,0.237,2.404,0.588,3.632,1.069
      C30.406,27.331,28.535,28.833,26.316,29.589"/>
    <path d="M11.598,38.461H9.476c-0.6,0-0.935,0.371-0.935,0.936v6.74
      c0,0.6,0.383,0.935,0.899,0.935s0.899-0.335,0.899-0.935v-1.968h1.331c1.644,0,2.998-1.091,2.998-2.842
      C14.667,39.612,13.361,38.461,11.598,38.461 M11.563,42.586h-1.224v-2.542h1.224c0.755,0,1.234,0.552,1.234,1.271
      C12.796,42.034,12.317,42.586,11.563,42.586"/>
    <path d="M20.669,39.312c-0.205-0.575-0.648-0.994-1.284-0.994
      c-0.611,0-1.079,0.443-1.283,0.994l-2.41,6.524c-0.024,0.061-0.084,0.205-0.084,0.396c0,0.479,0.407,0.84,0.887,0.84
      c0.492,0,0.744-0.265,0.864-0.636l0.359-1.115h3.334l0.361,1.127c0.12,0.359,0.371,0.624,0.875,0.624
      c0.444,0,0.828-0.324,0.828-0.792c0-0.084-0.024-0.252-0.097-0.444L20.669,39.312z M18.234,43.666l1.14-3.479h0.023l1.116,3.479
      H18.234z"/>
    <path d="M26.311,40.823c0-0.503,0.468-0.779,0.983-0.779c0.72,0,1.104,0.36,1.595,0.36
      c0.492,0,0.804-0.42,0.804-0.888c0-0.947-1.679-1.199-2.351-1.199c-1.595,0-2.975,1.043-2.975,2.722
      c0,2.783,4.006,1.931,4.006,3.346c0,0.589-0.432,1.032-1.224,1.032c-0.779,0-1.451-0.468-2.015-0.468
      c-0.491,0-0.804,0.384-0.804,0.852c0,1.127,1.991,1.344,2.915,1.344c1.654,0,3.07-1.068,3.07-2.783
      C30.316,41.268,26.311,42.059,26.311,40.823"/>
    <path d="M33.715,40.823c0-0.503,0.468-0.779,0.983-0.779c0.72,0,1.104,0.36,1.595,0.36
      c0.492,0,0.804-0.42,0.804-0.888c0-0.947-1.679-1.199-2.351-1.199c-1.595,0-2.975,1.043-2.975,2.722
      c0,2.783,4.006,1.931,4.006,3.346c0,0.589-0.432,1.032-1.224,1.032c-0.779,0-1.451-0.468-2.015-0.468
      c-0.491,0-0.804,0.384-0.804,0.852c0,1.127,1.991,1.344,2.915,1.344c1.654,0,3.07-1.068,3.07-2.783
      C37.721,41.268,33.715,42.059,33.715,40.823"/>
  </symbol>
  <symbol id="whyus3" viewBox="0 0 54.013 52.837">
    <path d="M52.833,38.854l-25.442,4.636c-1.069-2.047-3.209-3.45-5.673-3.45
      c-0.121,0-0.239,0.012-0.359,0.019l-8.403-36.3c-0.302-1.304-1.095-2.396-2.233-3.075C9.586,0.004,8.25-0.176,6.957,0.176
      L0.75,1.872c-0.444,0.121-0.718,0.525-0.72,0.963c-0.036,0.167-0.046,0.341,0.01,0.516L1.18,6.888
      c0.136,0.421,0.526,0.693,0.952,0.693c0.072,0,0.146-0.008,0.219-0.024l5.591-1.255C8.48,6.181,8.819,5.647,8.698,5.108
      C8.576,4.567,8.041,4.229,7.503,4.351l-4.7,1.054L2.205,3.548l5.279-1.442C8.246,1.897,9.031,2.002,9.697,2.4
      s1.131,1.041,1.31,1.809l8.396,36.27c-2.387,0.931-4.085,3.248-4.085,5.96c0,3.528,2.871,6.398,6.399,6.398
      c3.528,0,6.399-2.87,6.399-6.398c0-0.353-0.036-0.696-0.091-1.033l25.167-4.585c0.543-0.099,0.903-0.619,0.804-1.163
      C53.898,39.115,53.38,38.749,52.833,38.854 M21.717,50.837c-2.426,0-4.399-1.973-4.399-4.398s1.973-4.399,4.399-4.399
      c2.426,0,4.399,1.974,4.399,4.399S24.144,50.837,21.717,50.837"/>
    <path d="M21.717,45.039c-0.772,0-1.399,0.626-1.399,1.399
      c0,0.772,0.627,1.398,1.399,1.398s1.399-0.626,1.399-1.398C23.116,45.665,22.489,45.039,21.717,45.039"/>
    <path d="M25.35,36.865c0.293,1.403,1.55,2.423,2.988,2.423
      c0.182,0,0.366-0.017,0.549-0.051l19.268-3.576c0.79-0.147,1.47-0.595,1.916-1.26c0.447-0.665,0.602-1.465,0.438-2.251
      l-3.827-18.332c-0.33-1.581-1.899-2.676-3.537-2.372l-19.268,3.577c-0.79,0.147-1.47,0.595-1.916,1.26
      c-0.446,0.665-0.602,1.465-0.438,2.251L25.35,36.865z M37.481,18.097l-4.607,0.867l-0.839-3.421l4.754-0.882L37.481,18.097z
       M23.621,17.396c0.144-0.214,0.364-0.358,0.621-0.406l5.823-1.081l1.092,4.451c0.111,0.454,0.518,0.762,0.97,0.762
      c0.063,0,0.124-0.006,0.187-0.018l6.534-1.229c0.262-0.049,0.493-0.203,0.644-0.424c0.149-0.222,0.204-0.494,0.151-0.756
      l-0.887-4.4l4.753-0.882c0.062-0.012,0.122-0.018,0.184-0.018c0.488,0,0.931,0.357,1.03,0.831l3.827,18.332
      c0.054,0.256,0.003,0.515-0.141,0.729c-0.144,0.214-0.364,0.358-0.621,0.406l-19.267,3.576c-0.548,0.104-1.103-0.28-1.212-0.813
      l-3.83-18.332C23.427,17.871,23.477,17.611,23.621,17.396"/>
  </symbol>
  <symbol id="test" viewBox="0 0 54 54">
  </symbol>
</svg>