<?xml version="1.0" encoding="utf-8"?>
<!-- Generator: Adobe Illustrator 16.0.3, SVG Export Plug-In . SVG Version: 6.00 Build 0)  -->
<!DOCTYPE svg PUBLIC "-//W3C//DTD SVG 1.1//EN" "http://www.w3.org/Graphics/SVG/1.1/DTD/svg11.dtd">
<svg version="1.1" id="Слой_1" xmlns="http://www.w3.org/2000/svg" xmlns:xlink="http://www.w3.org/1999/xlink" x="0px" y="0px"
	 width="54px" height="54px" viewBox="0 0 54 54" enable-background="new 0 0 54 54" xml:space="preserve">
<g>
	<defs>
		<rect id="SVGID_1_" width="54" height="54"/>
	</defs>
	<clipPath id="SVGID_2_">
		<use xlink:href="#SVGID_1_"  overflow="visible"/>
	</clipPath>
	<path clip-path="url(#SVGID_2_)" fill="#424242" d="M49,0H8C5.243,0,3,2.243,3,5v4c-1.654,0-3,1.346-3,3v6c0,1.654,1.346,3,3,3v8
		c-1.654,0-3,1.346-3,3v6c0,1.654,1.346,3,3,3v4c0,2.757,2.243,5,5,5h41c2.757,0,5-2.243,5-5V5C54,2.243,51.757,0,49,0 M2,18v-6
		c0-0.552,0.448-1,1-1h2c0.552,0,1,0.448,1,1v6c0,0.552-0.448,1-1,1H3C2.448,19,2,18.552,2,18 M2,38v-6c0-0.552,0.448-1,1-1h2
		c0.552,0,1,0.448,1,1v6c0,0.552-0.448,1-1,1H3C2.448,39,2,38.552,2,38 M52,45c0,1.654-1.346,3-3,3H8c-1.654,0-3-1.346-3-3v-4
		c1.654,0,3-1.346,3-3v-6c0-1.654-1.346-3-3-3v-8c1.654,0,3-1.346,3-3v-6c0-1.654-1.346-3-3-3V5c0-1.654,1.346-3,3-3h41
		c1.654,0,3,1.346,3,3V45z"/>
	<path clip-path="url(#SVGID_2_)" fill="#424242" d="M29,11c-8.271,0-15,6.729-15,15c0,8.271,6.729,15,15,15c8.271,0,15-6.729,15-15
		C44,17.729,37.271,11,29,11 M29,39c-7.168,0-13-5.832-13-13s5.832-13,13-13s13,5.832,13,13S36.168,39,29,39"/>
	<path clip-path="url(#SVGID_2_)" fill="#424242" d="M30,21.102V16c0-0.553-0.447-1-1-1s-1,0.447-1,1v5.102
		c-2.279,0.463-4,2.484-4,4.898c0,2.757,2.243,5,5,5s5-2.243,5-5C34,23.586,32.279,21.565,30,21.102 M29,29c-1.654,0-3-1.346-3-3
		c0-1.654,1.346-3,3-3s3,1.346,3,3C32,27.654,30.654,29,29,29"/>
	<path clip-path="url(#SVGID_2_)" fill="#424242" d="M17,52h-6c-0.553,0-1,0.447-1,1s0.447,1,1,1h6c0.553,0,1-0.447,1-1
		S17.553,52,17,52"/>
	<path clip-path="url(#SVGID_2_)" fill="#424242" d="M46,52h-6c-0.553,0-1,0.447-1,1s0.447,1,1,1h6c0.553,0,1-0.447,1-1
		S46.553,52,46,52"/>
	<path clip-path="url(#SVGID_2_)" fill="#424242" d="M29,33c-0.553,0-1,0.447-1,1v2c0,0.553,0.447,1,1,1s1-0.447,1-1v-2
		C30,33.447,29.553,33,29,33"/>
	<path clip-path="url(#SVGID_2_)" fill="#424242" d="M36,26c0,0.553,0.447,1,1,1h2c0.553,0,1-0.447,1-1s-0.447-1-1-1h-2
		C36.447,25,36,25.447,36,26"/>
	<path clip-path="url(#SVGID_2_)" fill="#424242" d="M22,26c0-0.553-0.447-1-1-1h-2c-0.553,0-1,0.447-1,1s0.447,1,1,1h2
		C21.553,27,22,26.553,22,26"/>
	<path clip-path="url(#SVGID_2_)" fill="#424242" d="M34.656,21.342c0.256,0,0.512-0.098,0.707-0.293l1.415-1.414
		c0.391-0.39,0.391-1.023,0-1.414s-1.023-0.391-1.414,0l-1.415,1.414c-0.391,0.39-0.391,1.023,0,1.414
		C34.145,21.244,34.4,21.342,34.656,21.342"/>
	<path clip-path="url(#SVGID_2_)" fill="#424242" d="M22.636,30.949l-1.414,1.414c-0.391,0.391-0.391,1.023,0,1.414
		c0.195,0.195,0.451,0.293,0.707,0.293s0.512-0.098,0.707-0.293l1.414-1.414c0.391-0.391,0.391-1.023,0-1.414
		S23.027,30.559,22.636,30.949"/>
	<path clip-path="url(#SVGID_2_)" fill="#424242" d="M35.363,30.95c-0.391-0.391-1.023-0.391-1.414,0
		c-0.391,0.39-0.391,1.023,0,1.414l1.414,1.415c0.195,0.195,0.451,0.293,0.707,0.293s0.512-0.098,0.707-0.293
		c0.391-0.39,0.391-1.023,0-1.414L35.363,30.95z"/>
	<path clip-path="url(#SVGID_2_)" fill="#424242" d="M22.636,21.051c0.195,0.195,0.451,0.293,0.707,0.293s0.512-0.098,0.707-0.293
		c0.391-0.391,0.391-1.023,0-1.414l-1.414-1.414c-0.391-0.391-1.023-0.391-1.414,0c-0.391,0.39-0.391,1.023,0,1.414L22.636,21.051z"
		/>
</g>
</svg>
