<?xml version="1.0" encoding="utf-8"?>
<!-- Generator: Adobe Illustrator 16.0.3, SVG Export Plug-In . SVG Version: 6.00 Build 0)  -->
<!DOCTYPE svg PUBLIC "-//W3C//DTD SVG 1.1//EN" "http://www.w3.org/Graphics/SVG/1.1/DTD/svg11.dtd">
<svg version="1.1" id="Слой_1" xmlns="http://www.w3.org/2000/svg" xmlns:xlink="http://www.w3.org/1999/xlink" x="0px" y="0px"
	 width="49.675px" height="53.186px" viewBox="0 0 49.675 53.186" enable-background="new 0 0 49.675 53.186" xml:space="preserve">
<g>
	<defs>
		<rect id="SVGID_1_" width="49.675" height="53.186"/>
	</defs>
	<clipPath id="SVGID_2_">
		<use xlink:href="#SVGID_1_"  overflow="visible"/>
	</clipPath>
	<path clip-path="url(#SVGID_2_)" fill="#424242" d="M46.581,53.186c0.93,0,1.777-0.113,2.401-0.716
		c0.46-0.443,0.692-1.071,0.692-1.865c0-1.049-0.229-1.633-1.116-4.552c-0.906-2.982-8.978-7.164-14.978-9.56v-2.349
		c0-0.328-0.028-0.635-0.297-0.822c-0.271-0.188-0.548-0.229-0.854-0.114l-0.944,0.367c-0.149-0.879-0.252-1.833-0.295-2.539
		c0.623-0.569,1.217-1.318,1.822-2.314c0.198-0.323,0.398-0.632,0.594-0.936c0.626-0.98,1.272-1.989,1.826-3.352
		c0.551-0.248,1.051-0.707,1.36-1.276c1.165-2.136,1.838-5.564,1.359-6.919c-0.192-0.546-0.584-0.945-1.122-1.165
		C37.06,8.36,34.431,3.32,29.903,1.49c-5.654-3.119-9.506-0.488-10.417,0.256c-6.69,2.014-6.872,8.732-6.731,13.279
		c-0.599,0.205-1.033,0.62-1.239,1.208c-0.481,1.354,0.191,4.779,1.356,6.915c0.332,0.609,0.88,1.084,1.476,1.315
		c0.54,1.347,1.155,2.314,1.802,3.331c0.183,0.287,0.369,0.579,0.556,0.885c0.64,1.051,1.288,1.84,2.009,2.441
		c-0.095,0.637-0.307,1.597-0.511,2.466l-1.006-0.377c-0.306-0.115-0.784-0.073-1.054,0.114c-0.269,0.188-0.563,0.494-0.563,0.822v3
		l-0.229-0.932c-3.426,1.334-13.365,6.013-14.366,9.88c-0.715,2.763-0.966,4.117-0.978,4.173c-0.014,0.067-0.005,0.137-0.005,0.205
		c0,0.803,0.246,1.442,0.714,1.902c0.843,0.827,2.11,0.805,3.446,0.78L46.581,53.186z M17.581,35.926
		c0,0.285,0.481,0.52,0.804,0.599c0.08,0.021,0.227,0.029,0.306,0.029c0.289,0,0.585-0.136,0.773-0.348l5.017,1.875
		c0.226,0.084,0.483,0.084,0.71,0l5.041-1.889c0.243,0.217,0.446,0.324,0.79,0.235c0.359-0.099,0.56-0.386,0.56-0.723v6.158
		l-6.624-1.688c-0.08-0.021-0.094-0.03-0.176-0.03s-0.264,0.01-0.343,0.03l-6.857,1.688V35.926z M20.242,3.608
		c0.153-0.043,0.299-0.126,0.415-0.234c0.131-0.121,3.257-2.932,8.329-0.106c0.038,0.022,0.077,0.041,0.117,0.057
		c3.561,1.41,5.7,5.384,5.903,10.784c-6.754-0.374-12.567-5.088-13.178-6.156c-0.077-0.394-0.386-0.711-0.793-0.79
		c-0.473-0.088-0.94,0.165-1.117,0.611c-0.016,0.041-1.548,3.746-5.166,5.071C14.865,8.601,15.86,4.835,20.242,3.608 M20.335,29.841
		c-0.682-0.472-1.292-1.172-1.922-2.206c-0.194-0.316-0.386-0.62-0.575-0.916c-0.694-1.089-1.292-2.03-1.801-3.445
		c-0.133-0.368-0.514-0.628-0.905-0.66c-0.097-0.008-0.363-0.165-0.504-0.425c-1.01-1.851-1.442-4.682-1.253-5.261
		c0.025-0.015,0.142-0.057,0.379-0.049c0.273-0.011,0.545-0.098,0.74-0.295c0.195-0.197,0.301-0.465,0.29-0.742
		c-0.011-0.305-0.02-0.609-0.027-0.913c3.257-0.919,5.246-3.316,6.233-4.914c2.402,2.453,8.231,5.815,14.066,6.101
		c0.041,0.167,0.109,0.325,0.229,0.452c0.184,0.195,0.438,0.309,0.707,0.314c0.184,0.003,0.279,0.034,0.272,0.023
		c0.216,0.609-0.218,3.443-1.228,5.296c-0.142,0.26-0.402,0.423-0.501,0.436c-0.365,0.051-0.672,0.298-0.799,0.644
		c-0.518,1.399-1.147,2.385-1.813,3.428c-0.202,0.315-0.406,0.635-0.611,0.972c-0.605,0.994-1.156,1.666-1.736,2.114
		c-0.246,0.191-0.389,0.486-0.387,0.799c0.006,0.886,0.189,2.404,0.425,3.693l-4.769,1.788l-4.755-1.783
		c0.351-1.473,0.653-2.885,0.673-3.603C20.774,30.353,20.613,30.034,20.335,29.841 M47.593,51.032
		c-0.199,0.192-1.154,0.179-1.789,0.156c-0.311-0.012-0.632-0.002-0.957-0.002H25.581v-6.041c0-0.553-0.447-1-1-1
		c-0.552,0-1,0.447-1,1v6.041H4.847c-0.241,0-0.482-0.017-0.717-0.012c-0.742,0.013-1.759,0.022-2.004-0.219
		c-0.058-0.056-0.095-0.197-0.104-0.384c0.081-0.372,0.244-1.697,0.834-3.974c0.587-2.27,7.725-6.331,12.725-8.375v4.922
		c0,0.308,0.275,0.599,0.518,0.788c0.242,0.189,0.626,0.257,0.925,0.182l7.791-1.938l7.773,1.938c0.08,0.021,0.17,0.03,0.251,0.03
		c0.221,0,0.31-0.073,0.486-0.212c0.243-0.189,0.256-0.48,0.256-0.788v-4.462c8,3.267,12.615,6.472,13.063,7.951
		c0.854,2.81,0.966,3.214,0.966,3.971C47.609,50.879,47.623,51.002,47.593,51.032"/>
	<path clip-path="url(#SVGID_2_)" fill="#424242" d="M36.581,47.186h-4c-0.552,0-1,0.447-1,1s0.448,1,1,1h4c0.552,0,1-0.447,1-1
		S37.133,47.186,36.581,47.186"/>
</g>
</svg>
