<?xml version="1.0" encoding="utf-8"?>
<!-- Generator: Adobe Illustrator 16.0.3, SVG Export Plug-In . SVG Version: 6.00 Build 0)  -->
<!DOCTYPE svg PUBLIC "-//W3C//DTD SVG 1.1//EN" "http://www.w3.org/Graphics/SVG/1.1/DTD/svg11.dtd">
<svg version="1.1" id="Слой_1" xmlns="http://www.w3.org/2000/svg" xmlns:xlink="http://www.w3.org/1999/xlink" x="0px" y="0px"
	 width="54px" height="54px" viewBox="0 0 54 54" enable-background="new 0 0 54 54" xml:space="preserve">
<g>
	<defs>
		<rect id="SVGID_1_" width="54" height="54"/>
	</defs>
	<clipPath id="SVGID_2_">
		<use xlink:href="#SVGID_1_"  overflow="visible"/>
	</clipPath>
	<path clip-path="url(#SVGID_2_)" fill="#424242" d="M49.111,32c-0.039,0-0.073,0.018-0.111,0.022V25
		c0-0.009-0.005-0.016-0.005-0.025C49.618,24.141,50,23.118,50,22V12c0-2.757-2.243-5-5-5H34.931C34.436,3.06,31.072,0,27,0
		c-4.072,0-7.436,3.06-7.931,7H9c-2.757,0-5,2.243-5,5v10c0,1.118,0.382,2.141,1.005,2.975C5.005,24.984,5,24.991,5,25v7.017
		C2.274,32.107,0,34.345,0,37v11c0,2.757,2.243,5,5,5h2c0.009,0,0.016-0.005,0.024-0.005C7.858,53.618,8.882,54,10,54h34
		c1.118,0,2.142-0.382,2.976-1.005C46.983,52.995,46.991,53,47,53h2c2.757,0,5-2.243,5-5V37C54,34.196,51.853,32,49.111,32 M48,12
		v10c0,1.654-1.346,3-3,3h-5V9h5C46.654,9,48,10.346,48,12 M40.997,36H37v-3h4L40.997,36z M16.997,36H13v-3h4L16.997,36z M16,9h22
		v16H16V9z M27,2c2.967,0,5.432,2.167,5.91,5H21.09C21.568,4.167,24.033,2,27,2 M6,12c0-1.654,1.346-3,3-3h5v16H9
		c-1.654,0-3-1.346-3-3V12z M2,48V37c0-1.544,1.384-2.893,3-2.983V49c0,0.712,0.154,1.386,0.424,2H5C3.346,51,2,49.654,2,48 M10,52
		c-1.654,0-3-1.346-3-3V26.576C7.613,26.846,8.288,27,9,27h5v4h-1c-1.103,0-2,0.897-2,2v3c0,1.103,0.897,2,2,2h1v2
		c0,0.552,0.447,1,1,1s1-0.448,1-1v-2h1c1.103,0,2-0.897,2-2v-3c0-1.103-0.897-2-2-2h-1v-4h22v4h-1c-1.103,0-2,0.897-2,2v3
		c0,1.103,0.897,2,2,2h1v2c0,0.552,0.447,1,1,1s1-0.448,1-1v-2h1c1.103,0,2-0.897,2-2v-3c0-1.103-0.897-2-2-2h-1v-4h5
		c0.712,0,1.387-0.154,2-0.424V49c0,1.654-1.346,3-3,3H10z M52,48c0,1.654-1.346,3-3,3h-0.424C48.846,50.386,49,49.712,49,49V33.978
		C49.038,33.982,49.072,34,49.111,34C50.731,34,52,35.318,52,37V48z"/>
	<path clip-path="url(#SVGID_2_)" fill="#424242" d="M32,44H22c-2.804,0-5,1.538-5,3.5V50c0,0.552,0.447,1,1,1s1-0.448,1-1v-2.5
		c0-0.694,1.311-1.5,3-1.5h10c1.689,0,3,0.806,3,1.5V50c0,0.552,0.447,1,1,1s1-0.448,1-1v-2.5C37,45.538,34.804,44,32,44"/>
</g>
</svg>
