<?xml version="1.0" encoding="utf-8"?>
<!-- Generator: Adobe Illustrator 16.0.3, SVG Export Plug-In . SVG Version: 6.00 Build 0)  -->
<!DOCTYPE svg PUBLIC "-//W3C//DTD SVG 1.1//EN" "http://www.w3.org/Graphics/SVG/1.1/DTD/svg11.dtd">
<svg version="1.1" id="Слой_1" xmlns="http://www.w3.org/2000/svg" xmlns:xlink="http://www.w3.org/1999/xlink" x="0px" y="0px"
	 width="281.176px" height="79.583px" viewBox="0 0 281.176 79.583" enable-background="new 0 0 281.176 79.583"
	 xml:space="preserve">
<g>
	<path fill="#FFFFFF" d="M0.219,36.413c-0.748-0.996,0.59-2.204,1.5-1.354c4.961,4.628,12.879,8.205,26.563,7.879
		c40.275-0.963,80.157-34.066,84.165-24.048c1.664,4.16-36.071,36.071-88.173,30.06C11.523,47.477,4.465,42.062,0.219,36.413"/>
	<path fill="#FFFFFF" d="M43.717,29.722c-1.359-0.432-1.181-2.412,0.235-2.59c8.796-1.106,24.605-1.288,37.564,3.572
		c3.789,1.422,6.342,3.569,8.733,5.707c0.178,0.158-3.022,1.808-5.511,3.053c-0.198,0.098-0.071,0.396,0.136,0.321
		c2.755-0.993,6.438-2.311,6.488-2.262c4.265,4.127,6.753,8.562,7.932,11.392c0.505,1.211-0.787,2.381-1.948,1.772
		c-5.918-3.095-18.844-9.715-24.979-11.759C66.601,37.005,51.777,32.284,43.717,29.722"/>
	<ellipse fill="none" stroke="#FFFFFF" stroke-miterlimit="10" cx="52.345" cy="39.714" rx="39.138" ry="39.188"/>
</g>
<g>
	<path fill="#FFFFFF" d="M128.292,28.096v-12.6h3.689l3.006,4.878l3.007-4.878h3.689v12.6h-3.474V20.86l-3.223,4.932h-0.071
		l-3.204-4.896v7.2H128.292z"/>
	<path fill="#FFFFFF" d="M143.916,28.096v-12.6h3.456v7.092l4.878-7.092h3.258v12.6h-3.456v-7.092l-4.878,7.092H143.916z"/>
	<path fill="#FFFFFF" d="M157.739,28.096v-12.6h5.399c1.608,0,2.883,0.393,3.825,1.179s1.413,1.881,1.413,3.285
		c0,1.44-0.498,2.556-1.494,3.348s-2.304,1.188-3.924,1.188h-1.728v3.6H157.739z M161.231,21.76h1.655
		c0.624,0,1.113-0.15,1.468-0.45c0.354-0.3,0.53-0.708,0.53-1.224c0-0.54-0.177-0.951-0.53-1.233
		c-0.354-0.282-0.85-0.423-1.485-0.423h-1.638V21.76z"/>
	<path fill="#FFFFFF" d="M181.04,26.441c-1.302,1.271-2.919,1.907-4.851,1.907c-1.933,0-3.543-0.633-4.833-1.899
		c-1.29-1.266-1.936-2.816-1.936-4.652c0-1.824,0.651-3.372,1.953-4.644s2.919-1.908,4.852-1.908c1.932,0,3.543,0.633,4.833,1.899
		c1.289,1.266,1.935,2.817,1.935,4.653C182.993,23.621,182.342,25.168,181.04,26.441z M176.226,25.198
		c0.947,0,1.719-0.33,2.313-0.99c0.594-0.66,0.892-1.464,0.892-2.412c0-0.936-0.307-1.737-0.918-2.403
		c-0.612-0.666-1.387-0.999-2.322-0.999c-0.937,0-1.701,0.331-2.295,0.99c-0.594,0.66-0.892,1.464-0.892,2.412
		c0,0.936,0.304,1.737,0.909,2.403C174.519,24.865,175.289,25.198,176.226,25.198z"/>
	<path fill="#FFFFFF" d="M184.812,28.096v-12.6h6.462c1.536,0,2.682,0.378,3.438,1.134c0.54,0.54,0.811,1.23,0.811,2.07
		c0,1.308-0.648,2.244-1.944,2.808c0.816,0.264,1.438,0.642,1.863,1.134c0.426,0.492,0.639,1.152,0.639,1.98
		c0,1.081-0.42,1.929-1.26,2.547s-2.01,0.927-3.51,0.927H184.812z M188.213,20.518h2.196c1.104,0,1.656-0.378,1.656-1.134
		c0-0.72-0.528-1.08-1.584-1.08h-2.269V20.518z M188.213,25.288h2.7c1.116,0,1.674-0.396,1.674-1.188
		c0-0.756-0.569-1.134-1.71-1.134h-2.664V25.288z"/>
	<path fill="#FFFFFF" d="M196.674,28.096l5.363-12.69h3.366l5.364,12.69h-3.744l-0.918-2.25h-4.86l-0.899,2.25H196.674z
		 M202.271,23.128h2.826l-1.404-3.582L202.271,23.128z"/>
	<path fill="#FFFFFF" d="M211.415,28.096l3.006-4.392c-1.728-0.732-2.592-2.034-2.592-3.906c0-1.404,0.488-2.472,1.467-3.204
		c0.978-0.732,2.229-1.098,3.753-1.098h5.958v12.6h-3.492V24.28h-1.529l-2.538,3.816H211.415z M217.211,21.598h2.304v-3.132h-2.286
		c-0.588,0-1.05,0.138-1.386,0.414s-0.504,0.666-0.504,1.17c0,0.468,0.165,0.843,0.495,1.125
		C216.164,21.458,216.623,21.598,217.211,21.598z"/>
</g>
<g>
	<path fill="#FFFFFF" d="M127.355,50.891v-5.579h1.116c0.456-1.225,0.783-2.502,0.981-3.834c0.197-1.332,0.297-3.126,0.297-5.383
		v-0.323h9.594v9.54h1.422l-0.396,5.579h-2.952v-2.52h-6.696l-0.234,2.52H127.355z M132.126,45.312h3.726v-6.48h-2.735v0.126
		C133.116,41.213,132.785,43.332,132.126,45.312z"/>
	<path fill="#FFFFFF" d="M153.338,46.715c-1.302,1.272-2.919,1.908-4.851,1.908c-1.933,0-3.543-0.633-4.833-1.899
		c-1.29-1.266-1.936-2.816-1.936-4.652c0-1.824,0.651-3.372,1.953-4.645c1.302-1.271,2.919-1.907,4.852-1.907
		c1.932,0,3.543,0.633,4.833,1.898c1.289,1.267,1.935,2.817,1.935,4.653C155.291,43.896,154.64,45.444,153.338,46.715z
		 M148.523,45.473c0.947,0,1.719-0.329,2.313-0.989s0.892-1.464,0.892-2.412c0-0.937-0.307-1.737-0.918-2.403
		c-0.612-0.666-1.387-0.999-2.322-0.999c-0.937,0-1.701,0.33-2.295,0.99s-0.892,1.464-0.892,2.412c0,0.936,0.304,1.736,0.909,2.402
		C146.816,45.14,147.587,45.473,148.523,45.473z"/>
	<path fill="#FFFFFF" d="M163.175,48.624c-1.824,0-3.363-0.621-4.616-1.863c-1.255-1.241-1.882-2.805-1.882-4.688
		c0-1.848,0.633-3.402,1.899-4.662c1.266-1.26,2.847-1.89,4.743-1.89c2.243,0,4.008,0.888,5.292,2.663l-2.557,1.98
		c-0.779-0.972-1.704-1.458-2.771-1.458c-0.876,0-1.596,0.324-2.16,0.972c-0.564,0.648-0.846,1.446-0.846,2.395
		c0,0.96,0.281,1.761,0.846,2.402c0.564,0.643,1.284,0.964,2.16,0.964c0.612,0,1.134-0.129,1.566-0.388
		c0.432-0.258,0.857-0.639,1.277-1.143l2.628,1.872c-0.66,0.899-1.428,1.599-2.304,2.097S164.483,48.624,163.175,48.624z"/>
	<path fill="#FFFFFF" d="M173.328,48.372v-9.54h-3.78v-3.06H180.6v3.06h-3.78v9.54H173.328z"/>
	<path fill="#FFFFFF" d="M181.122,48.372l5.363-12.69h3.366l5.364,12.69h-3.744l-0.918-2.25h-4.86l-0.899,2.25H181.122z
		 M186.72,43.404h2.826l-1.404-3.582L186.72,43.404z"/>
	<path fill="#FFFFFF" d="M196.439,48.372v-12.6h6.462c1.536,0,2.682,0.378,3.438,1.134c0.54,0.54,0.811,1.23,0.811,2.069
		c0,1.309-0.648,2.244-1.944,2.809c0.816,0.264,1.438,0.642,1.863,1.134s0.639,1.152,0.639,1.98c0,1.08-0.42,1.929-1.26,2.547
		s-2.01,0.927-3.51,0.927H196.439z M199.841,40.793h2.196c1.104,0,1.656-0.378,1.656-1.134c0-0.72-0.528-1.08-1.584-1.08h-2.269
		V40.793z M199.841,45.564h2.7c1.116,0,1.674-0.396,1.674-1.188c0-0.756-0.569-1.134-1.71-1.134h-2.664V45.564z"/>
	<path fill="#FFFFFF" d="M209.31,48.372v-12.6h3.492v5.111l4.338-5.111h4.14l-4.77,5.418l4.932,7.182h-4.194l-3.168-4.68
		l-1.277,1.422v3.258H209.31z"/>
	<path fill="#FFFFFF" d="M221.441,48.372l5.363-12.69h3.366l5.364,12.69h-3.744l-0.918-2.25h-4.86l-0.899,2.25H221.441z
		 M227.039,43.404h2.826l-1.404-3.582L227.039,43.404z"/>
</g>
<g>
	<path fill="#FFFFFF" d="M128.164,70.25v-6.864h1.56l2.146,3.186l2.157-3.186h1.561v6.864h-1.586v-4.576l-2.158,3.081l-2.145-3.055
		v4.55H128.164z"/>
	<path fill="#FFFFFF" d="M137.563,70.25v-6.864h1.572v2.405h1.443c0.814,0,1.474,0.182,1.977,0.546
		c0.502,0.364,0.754,0.906,0.754,1.625c0,0.711-0.234,1.27-0.702,1.677c-0.468,0.408-1.105,0.611-1.911,0.611H137.563z
		 M139.135,68.975h1.353c0.398,0,0.706-0.086,0.923-0.26c0.217-0.173,0.325-0.425,0.325-0.754c0-0.303-0.11-0.537-0.332-0.702
		c-0.221-0.164-0.535-0.247-0.942-0.247h-1.326V68.975z M144.349,70.25v-6.864h1.572v6.864H144.349z"/>
	<path fill="#FFFFFF" d="M157.349,71.901V70.25h-5.551v-6.864h1.56v5.513h2.964v-5.513h1.561v5.513h0.987l-0.208,3.003H157.349z"/>
	<path fill="#FFFFFF" d="M163.328,70.406c-1.005,0-1.844-0.334-2.516-1.001c-0.672-0.668-1.007-1.53-1.007-2.587
		c0-0.997,0.316-1.842,0.948-2.535c0.633-0.693,1.435-1.04,2.405-1.04c1.04,0,1.849,0.354,2.425,1.06s0.864,1.584,0.864,2.632
		c0,0.191-0.009,0.339-0.026,0.442h-5.044c0.087,0.546,0.308,0.973,0.663,1.28s0.793,0.462,1.313,0.462
		c0.676,0,1.295-0.273,1.858-0.819l0.924,0.819C165.426,69.976,164.489,70.406,163.328,70.406z M161.365,66.336h3.523
		c-0.053-0.528-0.23-0.962-0.533-1.3c-0.304-0.338-0.707-0.507-1.209-0.507c-0.477,0-0.876,0.167-1.196,0.5
		C161.63,65.364,161.435,65.799,161.365,66.336z"/>
	<path fill="#FFFFFF" d="M168.034,70.25v-6.864h1.572v2.782h3.029v-2.782h1.573v6.864h-1.573v-2.769h-3.029v2.769H168.034z"/>
	<path fill="#FFFFFF" d="M176.186,70.25v-6.864h1.534v4.603c1.438-2.046,2.521-3.579,3.25-4.603h1.481v6.864h-1.521v-4.576
		l-3.264,4.576H176.186z"/>
	<path fill="#FFFFFF" d="M184.428,70.25v-6.864h1.56l2.146,3.186l2.157-3.186h1.561v6.864h-1.586v-4.576l-2.158,3.081l-2.145-3.055
		v4.55H184.428z"/>
	<path fill="#FFFFFF" d="M197.726,70.25v-6.864h3.522c0.685,0,1.233,0.154,1.645,0.462c0.412,0.308,0.618,0.726,0.618,1.254
		c0,0.72-0.369,1.244-1.105,1.573c0.944,0.269,1.417,0.841,1.417,1.716c0,0.581-0.228,1.036-0.683,1.365
		c-0.455,0.33-1.072,0.494-1.853,0.494H197.726z M199.272,66.219h1.612c0.32,0,0.571-0.078,0.754-0.233
		c0.182-0.156,0.272-0.359,0.272-0.611c0-0.234-0.082-0.423-0.247-0.565c-0.164-0.144-0.416-0.215-0.754-0.215h-1.638V66.219z
		 M199.272,69.001h1.781c0.372,0,0.66-0.08,0.864-0.24c0.203-0.16,0.306-0.375,0.306-0.644c0-0.26-0.106-0.464-0.318-0.611
		c-0.213-0.147-0.522-0.221-0.93-0.221h-1.703V69.001z"/>
	<path fill="#FFFFFF" d="M211.155,70.25h-1.561v-0.845c-0.555,0.658-1.295,0.987-2.223,0.987c-0.685,0-1.263-0.188-1.735-0.565
		s-0.709-0.903-0.709-1.579c0-0.736,0.256-1.296,0.768-1.677c0.511-0.382,1.183-0.572,2.015-0.572c0.668,0,1.3,0.096,1.898,0.286
		v-0.13c0-0.477-0.146-0.841-0.436-1.092c-0.291-0.252-0.709-0.378-1.255-0.378c-0.624,0-1.278,0.144-1.963,0.43l-0.429-1.262
		c0.849-0.381,1.72-0.571,2.613-0.571c0.996,0,1.748,0.251,2.255,0.754s0.761,1.218,0.761,2.145V70.25z M209.634,67.766v-0.39
		c-0.468-0.182-0.992-0.273-1.572-0.273c-0.494,0-0.88,0.096-1.157,0.286c-0.277,0.191-0.416,0.46-0.416,0.807
		c0,0.312,0.125,0.559,0.377,0.74c0.251,0.183,0.567,0.273,0.949,0.273c0.528,0,0.964-0.134,1.307-0.403
		C209.463,68.538,209.634,68.191,209.634,67.766z"/>
	<path fill="#FFFFFF" d="M213.027,70.25v-6.864h1.572v5.513h2.535v-5.513h1.561v5.513h2.535v-5.513h1.572v6.864H213.027z"/>
	<path fill="#FFFFFF" d="M227.924,70.406c-1.005,0-1.844-0.334-2.516-1.001c-0.672-0.668-1.007-1.53-1.007-2.587
		c0-0.997,0.316-1.842,0.948-2.535c0.633-0.693,1.435-1.04,2.405-1.04c1.04,0,1.849,0.354,2.425,1.06s0.864,1.584,0.864,2.632
		c0,0.191-0.009,0.339-0.026,0.442h-5.044c0.087,0.546,0.308,0.973,0.663,1.28s0.793,0.462,1.313,0.462
		c0.676,0,1.295-0.273,1.858-0.819l0.924,0.819C230.021,69.976,229.085,70.406,227.924,70.406z M225.961,66.336h3.523
		c-0.053-0.528-0.23-0.962-0.533-1.3c-0.304-0.338-0.707-0.507-1.209-0.507c-0.477,0-0.876,0.167-1.196,0.5
		C226.226,65.364,226.03,65.799,225.961,66.336z"/>
	<path fill="#FFFFFF" d="M236.53,70.25v-6.864h3.522c0.685,0,1.233,0.154,1.645,0.462c0.412,0.308,0.618,0.726,0.618,1.254
		c0,0.72-0.369,1.244-1.105,1.573c0.944,0.269,1.417,0.841,1.417,1.716c0,0.581-0.228,1.036-0.683,1.365
		c-0.455,0.33-1.072,0.494-1.853,0.494H236.53z M238.077,66.219h1.612c0.32,0,0.571-0.078,0.754-0.233
		c0.182-0.156,0.272-0.359,0.272-0.611c0-0.234-0.082-0.423-0.247-0.565c-0.164-0.144-0.416-0.215-0.754-0.215h-1.638V66.219z
		 M238.077,69.001h1.781c0.372,0,0.66-0.08,0.864-0.24c0.203-0.16,0.306-0.375,0.306-0.644c0-0.26-0.106-0.464-0.318-0.611
		c-0.213-0.147-0.522-0.221-0.93-0.221h-1.703V69.001z"/>
	<path fill="#FFFFFF" d="M244.2,72.33v-8.944h1.572v1.145c0.607-0.858,1.383-1.287,2.327-1.287c0.867,0,1.616,0.323,2.249,0.969
		s0.949,1.519,0.949,2.619c0,1.083-0.316,1.948-0.949,2.594s-1.382,0.968-2.249,0.968c-0.944,0-1.72-0.402-2.327-1.209v3.146H244.2z
		 M247.736,69.028c0.554,0,1.021-0.204,1.397-0.611s0.565-0.944,0.565-1.612c0-0.649-0.191-1.178-0.572-1.586
		c-0.382-0.407-0.845-0.61-1.391-0.61c-0.547,0-1.017,0.208-1.411,0.624s-0.591,0.948-0.591,1.599c0,0.642,0.196,1.168,0.591,1.579
		C246.72,68.822,247.189,69.028,247.736,69.028z"/>
	<path fill="#FFFFFF" d="M256.056,70.406c-1.005,0-1.844-0.334-2.516-1.001c-0.672-0.668-1.007-1.53-1.007-2.587
		c0-0.997,0.316-1.842,0.948-2.535c0.633-0.693,1.435-1.04,2.405-1.04c1.04,0,1.849,0.354,2.425,1.06s0.864,1.584,0.864,2.632
		c0,0.191-0.009,0.339-0.026,0.442h-5.044c0.087,0.546,0.308,0.973,0.663,1.28s0.793,0.462,1.313,0.462
		c0.676,0,1.295-0.273,1.858-0.819l0.924,0.819C258.153,69.976,257.217,70.406,256.056,70.406z M254.093,66.336h3.523
		c-0.053-0.528-0.23-0.962-0.533-1.3c-0.304-0.338-0.707-0.507-1.209-0.507c-0.477,0-0.876,0.167-1.196,0.5
		C254.357,65.364,254.162,65.799,254.093,66.336z"/>
	<path fill="#FFFFFF" d="M260.763,70.25v-6.864h1.56l2.146,3.186l2.157-3.186h1.561v6.864H266.6v-4.576l-2.158,3.081l-2.145-3.055
		v4.55H260.763z"/>
	<path fill="#FFFFFF" d="M269.537,70.25l1.897-2.574c-0.485-0.147-0.873-0.396-1.163-0.747c-0.291-0.352-0.436-0.787-0.436-1.307
		c0-0.676,0.238-1.218,0.715-1.625s1.14-0.611,1.989-0.611h3.444v6.864h-1.572v-2.314h-1.404l-1.625,2.314H269.537z M272.761,66.752
		h1.651V64.66h-1.664c-0.416,0-0.743,0.093-0.981,0.279s-0.357,0.44-0.357,0.761c0,0.329,0.123,0.587,0.37,0.773
		S272.354,66.752,272.761,66.752z"/>
	<path fill="#FFFFFF" d="M278.507,67.376l-0.494-5.771V61.15h1.846v0.455l-0.48,5.771H278.507z M278.078,70.25v-1.781h1.729v1.781
		H278.078z"/>
</g>
</svg>
