<?xml version="1.0" encoding="utf-8"?>
<!-- Generator: Adobe Illustrator 16.0.3, SVG Export Plug-In . SVG Version: 6.00 Build 0)  -->
<!DOCTYPE svg PUBLIC "-//W3C//DTD SVG 1.1//EN" "http://www.w3.org/Graphics/SVG/1.1/DTD/svg11.dtd">
<svg version="1.1" id="Слой_1" xmlns="http://www.w3.org/2000/svg" xmlns:xlink="http://www.w3.org/1999/xlink" x="0px" y="0px"
	 width="53.456px" height="50.143px" viewBox="0 0 53.456 50.143" enable-background="new 0 0 53.456 50.143" xml:space="preserve">
<g>
	<defs>
		<rect id="SVGID_1_" y="0" width="53.456" height="50.143"/>
	</defs>
	<clipPath id="SVGID_2_">
		<use xlink:href="#SVGID_1_"  overflow="visible"/>
	</clipPath>
	<path clip-path="url(#SVGID_2_)" fill="#424242" d="M3.259,22.421l15.048,4.543c0.097,0.029,0.194,0.043,0.29,0.043
		c0.429,0,0.826-0.279,0.957-0.711c0.16-0.529-0.14-1.087-0.669-1.247L4.26,20.634l1.094-1.433c0.157-0.207,0.614-0.452,0.875-0.47
		l20.095-1.352c0.551-0.038,0.968-0.514,0.932-1.065c-0.037-0.551-0.51-0.97-1.065-0.931L6.096,16.735
		c-0.841,0.056-1.823,0.583-2.333,1.254l-1.361,1.784c-0.36,0.473-0.471,1.042-0.303,1.561C2.268,21.852,2.69,22.249,3.259,22.421"
		/>
	<path clip-path="url(#SVGID_2_)" fill="#424242" d="M53.169,40.307L42.54,20.894L50.712,9.85c2.591-3.395,3.242-7.221,1.531-8.882
		c-0.082-0.084-0.364-0.357-0.694-0.532C51.077,0.143,50.409,0,49.51,0c-3.039,0-8.943,1.716-10.919,4.307L20.445,28.439
		c-0.529,0.695-3.884,5.26-6.47,9.365L4,39.146c-0.812,0.109-1.762,0.662-2.258,1.313l-1.361,1.782
		c-0.356,0.468-0.47,1.034-0.312,1.555c0.158,0.52,0.567,0.928,1.123,1.117l7.546,2.584c-0.151,0.438-0.185,0.913,0.103,1.337
		c0.574,0.843,1.656,1.308,3.046,1.308c0.388,0,0.652-0.037,0.652-0.037c6.272-0.844,14.421-8.774,15.606-10.329l3.269-4.286
		c0.53-0.608,1.191-0.917,1.965-0.917c0.247,0,0.449,0.032,0.569,0.06l14.855,10.636c0.854,0.611,2.161,0.415,2.798-0.42
		l1.359-1.783C53.53,42.318,53.621,41.134,53.169,40.307 M51.371,41.853l-1.403,1.79L34.964,32.899l-0.275-0.139
		c-0.325-0.106-2.77-0.895-4.823,1.466l-3.31,4.338c-0.962,1.262-8.634,8.799-14.279,9.558c-0.024,0.003-0.175,0.021-0.389,0.021
		c-0.476,0-0.88-0.082-1.142-0.223c0.059-0.104,0.143-0.239,0.264-0.413l0.752-1.087l-9.555-3.272l1.126-1.476
		c0.172-0.227,0.653-0.506,0.935-0.543l10.906-1.468l0.249-0.399c2.573-4.139,6.075-8.904,6.617-9.614L40.185,5.515
		C41.54,3.737,46.67,2,49.51,2c0.761,0,0.982,0.134,0.984,0.135l0.118,0.068c0.042,0.023,0.145,0.107,0.221,0.183
		c0.716,0.696,0.405,3.477-1.72,6.263l-8.941,12.084l11.243,20.533C51.488,41.401,51.465,41.73,51.371,41.853"/>
	<path clip-path="url(#SVGID_2_)" fill="#424242" d="M43.545,8.804c0.219,0.139,0.472,0.21,0.735,0.21
		c0.111,0,0.225-0.012,0.339-0.038c1.283-0.293,2.902-2.639,3.752-4.011c0.291-0.469,0.146-1.086-0.323-1.377
		c-0.47-0.291-1.086-0.146-1.377,0.323c-0.853,1.376-1.928,2.728-2.421,3.063c-0.385-0.065-0.789,0.1-1.012,0.45
		C42.941,7.889,43.079,8.508,43.545,8.804"/>
</g>
</svg>
