<?xml version="1.0" encoding="utf-8"?>
<!-- Generator: Adobe Illustrator 16.0.3, SVG Export Plug-In . SVG Version: 6.00 Build 0)  -->
<!DOCTYPE svg PUBLIC "-//W3C//DTD SVG 1.1//EN" "http://www.w3.org/Graphics/SVG/1.1/DTD/svg11.dtd">
<svg version="1.1" id="Слой_1" xmlns="http://www.w3.org/2000/svg" xmlns:xlink="http://www.w3.org/1999/xlink" x="0px" y="0px"
	 width="54px" height="53px" viewBox="0 0 54 53" enable-background="new 0 0 54 53" xml:space="preserve">
<g>
	<defs>
		<rect id="SVGID_1_" width="54" height="53"/>
	</defs>
	<clipPath id="SVGID_2_">
		<use xlink:href="#SVGID_1_"  overflow="visible"/>
	</clipPath>
	<path clip-path="url(#SVGID_2_)" fill="#424242" d="M51.969,29C53.194,28.088,54,26.641,54,25c0-2.757-2.243-5-5-5h-6h-1h-4.688
		C38.237,16.077,39,8.605,39,6c0-4.959-2.719-6-5-6c-1.494,0-4,0.649-4,5c0,5.972-8.779,18.571-10.512,21h-1.811
		c-0.112-0.401-0.305-0.773-0.584-1.083C16.571,24.334,15.809,24,15,24H3c-1.654,0-3,1.345-3,3v23c0,1.654,1.346,3,3,3h9
		c1.597,0,3.039-1.291,3.215-2.877L17.672,28H20c0.319,0,0.619-0.151,0.807-0.409C21.264,26.967,32,12.244,32,5c0-2.131,0.58-3,2-3
		c1.559,0,3,0.484,3,4c0,3.072-1.032,11.934-1.948,14.683c-0.103,0.305-0.051,0.641,0.137,0.902C35.377,21.845,35.679,22,36,22h6h1
		h6c1.654,0,3,1.345,3,3c0,1.654-1.346,3-3,3h-2c-0.553,0-1,0.447-1,1s0.447,1,1,1h2c1.654,0,3,1.346,3,3s-1.346,3-3,3h-1
		c-0.118,0-0.229,0.029-0.334,0.067C47.446,36.038,47.228,36,47,36h-1c-0.553,0-1,0.447-1,1s0.447,1,1,1h1c1.654,0,3,1.346,3,3
		s-1.346,3-3,3h-1c-0.109,0-0.209,0.029-0.308,0.062C45.594,44.029,45.493,44,45.384,44H44.5c-0.553,0-1,0.447-1,1s0.447,1,1,1
		c1.379,0,2.5,1.121,2.5,2.5S45.654,51,44,51h-8h-3h-3.5c-3.691,0-7.208-0.472-8.052-0.895l-2-1
		c-0.494-0.246-1.094-0.047-1.342,0.447c-0.247,0.494-0.047,1.095,0.447,1.342l2,1C21.99,52.612,26.234,53,29.5,53H33h3h8
		c2.757,0,5-2.019,5-4.5c0-0.988-0.323-1.898-0.865-2.642C50.345,45.34,52,43.365,52,41c0-1.279-0.497-2.436-1.29-3.32
		C52.623,36.978,54,35.153,54,33C54,31.358,53.194,29.912,51.969,29 M13.227,49.902C13.163,50.487,12.588,51,12,51H3
		c-0.551,0-1-0.448-1-1V27c0-0.552,0.449-1,1-1h12c0.244,0,0.458,0.089,0.603,0.251c0.145,0.162,0.21,0.383,0.183,0.626
		L13.227,49.902z"/>
</g>
</svg>
